<svg xmlns="http://www.w3.org/2000/svg" viewBox="0 0 256 256" role="img" aria-labelledby="hc-title hc-desc">
  <title id="hc-title">Cloud Computer AI.com</title>
  <desc id="hc-desc">High-contrast cyan cloud framing a white computer with AI mark for dark backgrounds.</desc>
  <defs>
    <filter id="glow" x="-40%" y="-40%" width="180%" height="180%">
      <feGaussianBlur stdDeviation="3.5" result="b"/>
      <feMerge><feMergeNode in="b"/><feMergeNode in="SourceGraphic"/></feMerge>
    </filter>
  </defs>
  <path filter="url(#glow)" fill="none" stroke="#7EF0FF" stroke-width="10" stroke-linejoin="round" stroke-linecap="round"
    d="M72 176c-28-2-46-22-46-46 0-24 18-44 44-46 7-28 32-46 60-46 24 0 45 12 56 32 30-2 54 20 55 49 13 5 22 18 22 33 0 20-16 36-36 36H168"/>
  <rect x="78" y="98" width="100" height="78" rx="10" fill="none" stroke="#FFFFFF" stroke-width="6"/>
  <rect x="90" y="110" width="76" height="46" rx="4" fill="none" stroke="#7EF0FF" stroke-width="3"/>
  <text x="128" y="141" text-anchor="middle" font-family="ui-sans-serif, system-ui, sans-serif" font-size="22" font-weight="800" fill="#FFFFFF" letter-spacing="1">AI</text>
  <circle cx="128" cy="168" r="3.5" fill="#FFFFFF"/>
  <path d="M112 176h32l4 14h10c4 0 7 2.5 7 6s-3 6-7 6H98c-4 0-7-2.5-7-6s3-6 7-6h10l4-14z" fill="#FFFFFF"/>
</svg>
